<svg xmlns="http://www.w3.org/2000/svg" viewBox="0 0 1280 760" fill="none"><rect width="1280" height="760" fill="#f8fafc"/>
    
    <text x="72" y="74" fill="#0f172a" font-family="Inter, Arial, sans-serif" font-size="42" font-weight="800">Cross-platform desktop framework comparison</text>
    <text x="72" y="110" fill="#475569" font-family="Inter, Arial, sans-serif" font-size="22">Electron is not always the best fit, but it is still the most mature option for many teams.</text>
    <rect x="72" y="132" width="148" height="34" rx="17" fill="#2563eb14"/><text x="146" y="154" fill="#2563eb" font-family="Inter, Arial, sans-serif" font-size="18" font-weight="700" text-anchor="middle">Compare</text>
  
    <rect x="72" y="210" width="250" height="60" fill="#2563eb" rx="16"/><text x="90" y="248" fill="#ffffff" font-family="Inter, Arial, sans-serif" font-size="24" font-weight="800">Framework</text><rect x="322" y="210" width="260" height="60" fill="#2563eb" rx="0"/><text x="340" y="248" fill="#ffffff" font-family="Inter, Arial, sans-serif" font-size="24" font-weight="800">Main strength</text><rect x="582" y="210" width="280" height="60" fill="#2563eb" rx="0"/><text x="600" y="248" fill="#ffffff" font-family="Inter, Arial, sans-serif" font-size="24" font-weight="800">Main trade-off</text><rect x="862" y="210" width="280" height="60" fill="#2563eb" rx="0"/><text x="880" y="248" fill="#ffffff" font-family="Inter, Arial, sans-serif" font-size="24" font-weight="800">Typical use</text>
    <rect x="72" y="270" width="250" height="76" fill="#ffffff" stroke="#e2e8f0" stroke-width="1"/><text x="90" y="316" fill="#0f172a" font-family="Inter, Arial, sans-serif" font-size="22" font-weight="700">Electron</text><rect x="322" y="270" width="260" height="76" fill="#ffffff" stroke="#e2e8f0" stroke-width="1"/><text x="340" y="316" fill="#475569" font-family="Inter, Arial, sans-serif" font-size="22" >Mature ecosystem</text><rect x="582" y="270" width="280" height="76" fill="#ffffff" stroke="#e2e8f0" stroke-width="1"/><text x="600" y="316" fill="#475569" font-family="Inter, Arial, sans-serif" font-size="22" >Larger runtime footprint</text><rect x="862" y="270" width="280" height="76" fill="#ffffff" stroke="#e2e8f0" stroke-width="1"/><text x="880" y="316" fill="#475569" font-family="Inter, Arial, sans-serif" font-size="22" >GUI-heavy desktop products</text><rect x="72" y="346" width="250" height="76" fill="#f8fafc" stroke="#e2e8f0" stroke-width="1"/><text x="90" y="392" fill="#0f172a" font-family="Inter, Arial, sans-serif" font-size="22" font-weight="700">NW.js</text><rect x="322" y="346" width="260" height="76" fill="#f8fafc" stroke="#e2e8f0" stroke-width="1"/><text x="340" y="392" fill="#475569" font-family="Inter, Arial, sans-serif" font-size="22" >Similar web stack</text><rect x="582" y="346" width="280" height="76" fill="#f8fafc" stroke="#e2e8f0" stroke-width="1"/><text x="600" y="392" fill="#475569" font-family="Inter, Arial, sans-serif" font-size="22" >Smaller ecosystem today</text><rect x="862" y="346" width="280" height="76" fill="#f8fafc" stroke="#e2e8f0" stroke-width="1"/><text x="880" y="392" fill="#475569" font-family="Inter, Arial, sans-serif" font-size="22" >Legacy web-style apps</text><rect x="72" y="422" width="250" height="76" fill="#ffffff" stroke="#e2e8f0" stroke-width="1"/><text x="90" y="468" fill="#0f172a" font-family="Inter, Arial, sans-serif" font-size="22" font-weight="700">Tauri</text><rect x="322" y="422" width="260" height="76" fill="#ffffff" stroke="#e2e8f0" stroke-width="1"/><text x="340" y="468" fill="#475569" font-family="Inter, Arial, sans-serif" font-size="22" >Smaller bundle size</text><rect x="582" y="422" width="280" height="76" fill="#ffffff" stroke="#e2e8f0" stroke-width="1"/><text x="600" y="468" fill="#475569" font-family="Inter, Arial, sans-serif" font-size="22" >More Rust and platform work</text><rect x="862" y="422" width="280" height="76" fill="#ffffff" stroke="#e2e8f0" stroke-width="1"/><text x="880" y="468" fill="#475569" font-family="Inter, Arial, sans-serif" font-size="22" >Lighter desktop utilities</text><rect x="72" y="498" width="250" height="76" fill="#f8fafc" stroke="#e2e8f0" stroke-width="1"/><text x="90" y="544" fill="#0f172a" font-family="Inter, Arial, sans-serif" font-size="22" font-weight="700">Flutter Desktop</text><rect x="322" y="498" width="260" height="76" fill="#f8fafc" stroke="#e2e8f0" stroke-width="1"/><text x="340" y="544" fill="#475569" font-family="Inter, Arial, sans-serif" font-size="22" >Unified UI toolkit</text><rect x="582" y="498" width="280" height="76" fill="#f8fafc" stroke="#e2e8f0" stroke-width="1"/><text x="600" y="544" fill="#475569" font-family="Inter, Arial, sans-serif" font-size="22" >Different language stack</text><rect x="862" y="498" width="280" height="76" fill="#f8fafc" stroke="#e2e8f0" stroke-width="1"/><text x="880" y="544" fill="#475569" font-family="Inter, Arial, sans-serif" font-size="22" >Teams already using Flutter</text><rect x="72" y="574" width="250" height="76" fill="#ffffff" stroke="#e2e8f0" stroke-width="1"/><text x="90" y="620" fill="#0f172a" font-family="Inter, Arial, sans-serif" font-size="22" font-weight="700">Proton Native</text><rect x="322" y="574" width="260" height="76" fill="#ffffff" stroke="#e2e8f0" stroke-width="1"/><text x="340" y="620" fill="#475569" font-family="Inter, Arial, sans-serif" font-size="22" >React-flavored API</text><rect x="582" y="574" width="280" height="76" fill="#ffffff" stroke="#e2e8f0" stroke-width="1"/><text x="600" y="620" fill="#475569" font-family="Inter, Arial, sans-serif" font-size="22" >Less momentum</text><rect x="862" y="574" width="280" height="76" fill="#ffffff" stroke="#e2e8f0" stroke-width="1"/><text x="880" y="620" fill="#475569" font-family="Inter, Arial, sans-serif" font-size="22" >Small experiments</text>
    <text x="72" y="710" fill="#475569" font-family="Inter, Arial, sans-serif" font-size="22">The best choice depends on product constraints, team background, and performance goals.</text>
  </svg>