<svg xmlns="http://www.w3.org/2000/svg" viewBox="0 0 940 420" fill="none">
  <rect width="940" height="420" rx="28" fill="#f8fafc"/>
  <text x="48" y="64" fill="#0f172a" font-family="Inter, Arial, sans-serif" font-size="28" font-weight="700">Electron local database options</text>
  <text x="48" y="96" fill="#475569" font-family="Inter, Arial, sans-serif" font-size="16">A simplified comparison of common local storage libraries discussed in this article.</text>
  <g font-family="Inter, Arial, sans-serif">
    <line x1="120" y1="320" x2="840" y2="320" stroke="#cbd5e1" stroke-width="2"/>
    <line x1="120" y1="136" x2="120" y2="320" stroke="#cbd5e1" stroke-width="2"/>
    <path d="M120 286C180 276 220 278 270 282C318 286 360 118 414 124C470 130 510 270 566 264C624 258 670 246 724 238C774 232 806 240 840 232" stroke="#22c55e" stroke-width="6" stroke-linecap="round"/>
    <path d="M120 250C180 244 220 240 270 246C320 252 360 208 414 214C470 220 510 214 566 220C620 226 668 224 724 218C774 214 806 210 840 206" stroke="#f97316" stroke-width="6" stroke-linecap="round"/>
    <path d="M120 214C170 210 210 208 254 212C298 216 330 226 364 228C398 230 440 234 484 238C528 242 572 240 620 244C672 248 734 252 840 250" stroke="#3b82f6" stroke-width="6" stroke-linecap="round"/>
    <path d="M120 302C196 298 240 296 304 300C368 304 428 298 498 302C574 306 660 304 840 308" stroke="#ef4444" stroke-width="6" stroke-linecap="round"/>
    <path d="M120 312C220 312 320 312 420 312C520 312 620 312 720 312C780 312 820 312 840 312" stroke="#facc15" stroke-width="6" stroke-linecap="round"/>
    <text x="700" y="132" fill="#22c55e" font-size="18" font-weight="700">lowdb</text>
    <text x="700" y="206" fill="#f97316" font-size="18" font-weight="700">lokijs</text>
    <text x="700" y="252" fill="#3b82f6" font-size="18" font-weight="700">electron-store</text>
    <text x="700" y="310" fill="#ef4444" font-size="18" font-weight="700">nedb</text>
    <text x="700" y="338" fill="#ca8a04" font-size="18" font-weight="700">realm</text>
  </g>
</svg>
