<svg xmlns="http://www.w3.org/2000/svg" viewBox="0 0 1440 900" fill="none">
  <rect width="1440" height="900" fill="#f8fafc"/>
  <rect x="0" y="0" width="1440" height="72" fill="#ffffff"/>
  <text x="40" y="48" fill="#111827" font-family="Inter, Arial, sans-serif" font-size="34" font-weight="800">XTools</text>
  <rect x="0" y="72" width="240" height="828" fill="#ffffff"/>
  <text x="48" y="130" fill="#111827" font-family="Inter, Arial, sans-serif" font-size="26" font-weight="700">Image slicing</text>
  <text x="268" y="132" fill="#64748b" font-family="Inter, Arial, sans-serif" font-size="22">Split one image into multiple smaller pieces</text>
  <g font-family="Inter, Arial, sans-serif">
    <rect x="280" y="164" width="68" height="68" rx="8" fill="#eff6ff" stroke="#93c5fd" stroke-width="2"/>
    <text x="314" y="154" fill="#111827" font-size="18" font-weight="700" text-anchor="middle">4</text>
    <rect x="404" y="164" width="68" height="68" rx="8" fill="#eff6ff" stroke="#93c5fd" stroke-width="2"/>
    <text x="438" y="154" fill="#111827" font-size="18" font-weight="700" text-anchor="middle">6</text>
    <rect x="528" y="164" width="68" height="68" rx="8" fill="#dbeafe" stroke="#3b82f6" stroke-width="3"/>
    <text x="562" y="154" fill="#111827" font-size="18" font-weight="700" text-anchor="middle">9</text>
    <rect x="280" y="414" width="268" height="42" rx="8" fill="#ffffff" stroke="#cbd5e1" stroke-dasharray="4 4"/>
    <text x="414" y="441" fill="#475569" font-size="18" text-anchor="middle">Reset image</text>
    <rect x="280" y="474" width="268" height="42" rx="8" fill="#ffffff" stroke="#cbd5e1"/>
    <text x="414" y="501" fill="#475569" font-size="18" text-anchor="middle">Upload another image</text>
    <rect x="280" y="534" width="268" height="44" rx="8" fill="#2563eb"/>
    <text x="414" y="562" fill="#ffffff" font-size="18" font-weight="700" text-anchor="middle">Download sliced images</text>
  </g>
  <rect x="584" y="156" width="808" height="650" rx="12" fill="#e5e7eb"/>
  <rect x="884" y="404" width="420" height="240" fill="#312e81"/>
  <path d="M884 524H1304" stroke="#ef4444" stroke-width="2"/>
  <path d="M1024 404V644" stroke="#ef4444" stroke-width="2"/>
  <path d="M1164 404V644" stroke="#ef4444" stroke-width="2"/>
  <path d="M884 584H1304" stroke="#ef4444" stroke-width="2"/>
  <circle cx="1094" cy="524" r="42" fill="#f59e0b"/>
  <rect x="1004" y="456" width="180" height="20" rx="10" fill="#0ea5e9"/>
  <rect x="1020" y="490" width="148" height="10" rx="5" fill="#a855f7"/>
</svg>
